<?xml version="1.0" standalone="no"?>
<!DOCTYPE svg PUBLIC "-//W3C//DTD SVG 20010904//EN"
 "http://www.w3.org/TR/2001/REC-SVG-20010904/DTD/svg10.dtd">
<svg version="1.0" xmlns="http://www.w3.org/2000/svg"
 width="450.000000pt" height="450.000000pt" viewBox="0 0 450.000000 450.000000"
 preserveAspectRatio="xMidYMid meet">

<g transform="translate(0.000000,450.000000) scale(0.100000,-0.100000)"
fill="#000000" stroke="none">
<path d="M2105 4036 c-69 -22 -108 -47 -180 -116 -82 -79 -90 -84 -179 -104
-150 -35 -256 -121 -323 -261 -19 -42 -34 -78 -31 -80 2 -2 34 7 70 20 103 37
218 51 305 36 71 -12 233 -81 233 -99 0 -4 -54 -35 -120 -67 -66 -32 -119 -59
-118 -60 2 -2 37 -17 78 -34 94 -39 180 -106 217 -168 24 -41 28 -58 28 -123
-1 -67 -5 -83 -38 -145 -97 -185 -340 -370 -553 -421 -104 -26 -267 -23 -377
5 -380 97 -634 311 -738 621 l-32 95 6 174 c4 99 3 171 -2 165 -5 -5 -25 -49
-44 -99 -128 -324 -114 -601 43 -838 49 -74 165 -194 258 -266 30 -22 51 -41
48 -41 -3 0 -40 14 -83 31 -174 68 -266 144 -383 319 -63 93 -65 94 -71 65 -4
-16 -7 -97 -8 -180 -1 -226 32 -435 105 -663 37 -115 120 -292 140 -299 6 -2
33 14 60 35 41 33 376 228 464 271 21 10 20 8 -5 -11 -16 -12 -52 -44 -80 -70
-44 -41 -48 -49 -35 -61 8 -7 77 -53 153 -102 l138 -88 -173 -98 c-95 -54
-177 -100 -182 -102 -12 -4 145 -277 158 -277 5 0 88 43 183 95 96 52 176 95
179 95 2 0 4 -79 4 -176 l0 -176 33 7 c76 17 172 56 198 81 38 37 49 96 49
272 0 165 6 183 66 208 68 28 69 27 83 -108 7 -68 14 -125 17 -127 2 -2 39 12
83 32 l79 35 6 -41 c3 -23 8 -68 12 -100 3 -31 8 -57 11 -57 2 0 51 27 110 60
58 33 109 60 114 60 12 0 22 -84 14 -112 -12 -38 -46 -68 -120 -105 -107 -54
-202 -120 -224 -157 -14 -23 -21 -50 -21 -87 0 -64 21 -169 33 -169 5 0 81 38
169 85 88 47 162 85 164 85 2 0 4 -92 4 -205 l0 -206 153 3 152 3 3 198 c2
153 5 198 15 194 6 -3 80 -41 162 -85 124 -67 151 -78 159 -65 15 26 19 166 6
213 -15 55 -96 138 -155 159 -69 24 -170 88 -183 116 -14 30 -16 104 -4 123 6
9 36 -3 116 -48 60 -33 112 -60 116 -60 4 0 10 45 13 101 3 55 7 103 10 105 3
3 42 -13 87 -36 45 -23 84 -39 86 -37 3 2 14 58 25 123 11 65 22 121 25 123 2
2 22 -4 45 -14 69 -32 74 -46 74 -235 1 -233 10 -249 169 -301 45 -15 82 -26
83 -25 2 1 10 78 18 171 9 93 17 170 18 171 1 1 78 -41 171 -92 93 -52 172
-94 177 -94 10 0 161 271 155 278 -3 3 -83 49 -177 103 l-172 98 47 28 c64 37
259 163 270 173 4 4 -27 31 -69 60 -162 110 -200 108 -382 -12 -115 -75 -159
-84 -227 -44 -26 15 -46 31 -46 36 0 5 50 43 110 84 l111 73 -80 54 c-100 67
-102 83 -9 87 l68 3 202 -105 c112 -57 318 -165 458 -240 140 -75 258 -136
261 -136 11 0 96 183 128 274 75 214 110 408 118 661 14 434 -80 835 -258
1096 -40 60 -139 172 -145 166 -3 -2 7 -46 20 -98 46 -175 59 -267 60 -419 0
-108 -5 -163 -18 -215 -35 -134 -112 -258 -203 -326 -42 -32 -104 -69 -116
-69 -3 0 13 33 34 74 46 88 101 251 120 356 20 114 16 318 -10 413 -27 101
-81 203 -139 263 -43 43 -148 104 -180 104 -7 0 7 -28 32 -64 149 -208 173
-422 76 -673 -112 -293 -358 -533 -695 -681 -110 -48 -205 -83 -205 -77 0 3
17 40 39 83 98 195 133 360 129 597 l-3 161 103 208 c56 115 100 211 98 214
-3 2 -63 15 -133 28 -70 13 -132 26 -138 27 -5 2 -17 77 -26 168 l-16 164 -35
-76 c-20 -41 -43 -83 -53 -92 -44 -44 -161 -1 -265 97 -88 84 -125 108 -199
130 -64 19 -121 19 -176 2z m129 -142 c9 -3 16 -14 16 -24 0 -13 -31 -31 -117
-68 -65 -28 -119 -49 -121 -47 -2 2 7 27 19 55 28 66 65 90 136 90 28 0 58 -3
67 -6z m-376 -1859 c32 -15 52 -30 50 -37 -3 -7 -28 -32 -57 -55 -78 -65 -123
-58 -234 33 l-28 23 23 14 c88 56 160 62 246 22z m988 1 c65 -30 74 -43 43
-68 -99 -78 -212 -76 -287 5 l-24 25 24 15 c87 55 160 62 244 23z m-1446 -36
c0 -13 -24 -36 -75 -70 -41 -28 -75 -52 -75 -55 0 -2 44 -34 98 -71 53 -37 99
-69 101 -71 8 -6 -33 -45 -63 -60 -54 -28 -106 -13 -220 65 -116 78 -161 97
-217 89 -22 -3 -39 -4 -39 -2 0 6 324 178 350 186 14 4 51 8 83 8 50 1 57 -1
57 -19z m695 -374 c13 -86 -18 -151 -89 -186 -26 -12 -52 -20 -60 -17 -12 5
-36 96 -36 138 0 29 33 59 95 84 33 13 65 25 72 25 6 0 15 -20 18 -44z m390
23 c73 -27 85 -47 85 -134 0 -94 -6 -102 -61 -86 -82 25 -127 103 -113 197 7
51 12 52 89 23z"/>
<path d="M620 3868 c-97 -122 -150 -268 -157 -439 -9 -200 46 -363 169 -494
106 -114 217 -171 389 -201 127 -22 149 -16 79 20 -194 100 -347 237 -418 373
-92 178 -103 374 -36 671 14 63 23 116 21 118 -3 3 -24 -19 -47 -48z"/>
<path d="M1585 3450 c-77 -30 -116 -69 -237 -238 -62 -85 -117 -162 -121 -169
-5 -8 3 -17 25 -26 135 -57 239 -7 353 168 28 44 82 120 118 169 37 49 67 92
67 96 0 4 -14 10 -31 14 -56 11 -123 5 -174 -14z"/>
</g>
</svg>
